<svg id="Layer_1" data-name="Layer 1" xmlns="http://www.w3.org/2000/svg" viewBox="0 0 79.88 78.97"><defs><style>.cls-1{fill:#ec3025;}</style></defs><title>log-SF-red</title><path class="cls-1" d="M170.16,13.7H130.35a20.09,20.09,0,0,0-20,20v38.9a20.09,20.09,0,0,0,20,20h39.81a20.09,20.09,0,0,0,20-20V33.73A20.09,20.09,0,0,0,170.16,13.7Zm-17,51.22a11.1,11.1,0,0,1-1.42,2.94A9.35,9.35,0,0,1,149.68,70a12.74,12.74,0,0,1-2.45,1.46,12.41,12.41,0,0,1-2.58.84,12.2,12.2,0,0,1-2.47.27H114.54v-7h27.64a4.24,4.24,0,0,0,3.21-1.19,4.42,4.42,0,0,0,1.14-3.2,5.1,5.1,0,0,0-.3-1.79,4.15,4.15,0,0,0-.87-1.41,3.84,3.84,0,0,0-1.38-.92,4.83,4.83,0,0,0-1.8-.33H125.7a13,13,0,0,1-3.75-.61,11.3,11.3,0,0,1-3.74-2,10.75,10.75,0,0,1-2.87-3.55,11.49,11.49,0,0,1-1.14-5.36,11.41,11.41,0,0,1,1.14-5.35,11,11,0,0,1,2.87-3.55,11.19,11.19,0,0,1,3.74-2,13,13,0,0,1,3.75-.61h24.39v7H125.7A4.15,4.15,0,0,0,122.52,42a4.51,4.51,0,0,0-1.15,3.22,4.41,4.41,0,0,0,1.15,3.21,4.23,4.23,0,0,0,3.18,1.18h16.53a12.9,12.9,0,0,1,2.45.31,12.55,12.55,0,0,1,5,2.38,10.3,10.3,0,0,1,2.05,2.18,10.71,10.71,0,0,1,1.42,2.93,12.38,12.38,0,0,1,.52,3.74A12.14,12.14,0,0,1,153.16,64.92Zm23-8.19h-9.28v-7.1h12.4Zm7-15.93H164V72.6h-7.17V37.31a3.47,3.47,0,0,1,.28-1.38,3.57,3.57,0,0,1,.76-1.14,3.42,3.42,0,0,1,1.14-.76,3.76,3.76,0,0,1,1.43-.27h25.81Z" transform="translate(-110.32 -13.7)"/></svg>