<svg id="Layer_1" data-name="Layer 1" xmlns="http://www.w3.org/2000/svg" viewBox="0 0 249.14 47.81"><defs><style>.cls-1{fill:#ec3025;}.cls-2{fill:#0d0600;}.cls-3{fill:#231f20;}</style></defs><title>serviceForce-Logo</title><path class="cls-1" d="M43.88,41.79a6.13,6.13,0,0,1-.27,1.89,5.6,5.6,0,0,1-.72,1.48,4.72,4.72,0,0,1-1,1.09,6.43,6.43,0,0,1-1.24.74,6.26,6.26,0,0,1-1.3.42,6.16,6.16,0,0,1-1.25.14h-14V44h14a2.14,2.14,0,0,0,1.62-.6,2.23,2.23,0,0,0,.58-1.61,2.57,2.57,0,0,0-.15-.9,2.09,2.09,0,0,0-.44-.71,1.94,1.94,0,0,0-.7-.46,2.44,2.44,0,0,0-.91-.16H29.74a6.55,6.55,0,0,1-1.89-.31,5.7,5.7,0,0,1-1.89-1,5.43,5.43,0,0,1-1.45-1.79,5.8,5.8,0,0,1-.58-2.71,5.76,5.76,0,0,1,.58-2.7A5.53,5.53,0,0,1,26,29.26a5.65,5.65,0,0,1,1.89-1A6.55,6.55,0,0,1,29.74,28H42.06v3.55H29.74a2.09,2.09,0,0,0-1.61.62,2.28,2.28,0,0,0-.58,1.63,2.22,2.22,0,0,0,.58,1.62,2.13,2.13,0,0,0,1.61.59h8.35a6.51,6.51,0,0,1,1.24.16,6.34,6.34,0,0,1,2.53,1.2,5.2,5.2,0,0,1,1,1.1,5.4,5.4,0,0,1,.72,1.48A6.25,6.25,0,0,1,43.88,41.79Z" transform="translate(-23.61 -27.68)"/><path class="cls-1" d="M64.91,47.56h-13a5.89,5.89,0,0,1-1.64-.26,4.84,4.84,0,0,1-1.65-.85,4.79,4.79,0,0,1-1.27-1.54,4.89,4.89,0,0,1-.51-2.33V29.75a1.77,1.77,0,0,1,.14-.7,1.82,1.82,0,0,1,.38-.57,1.72,1.72,0,0,1,.58-.38,1.9,1.9,0,0,1,.72-.14H64.91v3.55H50.42V42.57a1.43,1.43,0,0,0,.38,1.07,1.5,1.5,0,0,0,1.1.37h13Zm-1.63-8H51.86V36H63.28Z" transform="translate(-23.61 -27.68)"/><path class="cls-1" d="M88.34,34.54A7.12,7.12,0,0,1,88,36.72a6.07,6.07,0,0,1-.83,1.69A5.76,5.76,0,0,1,86,39.66a7.24,7.24,0,0,1-1.43.85,6.93,6.93,0,0,1-1.5.49,7.33,7.33,0,0,1-1.43.15l7.55,6.41H83.61l-7.54-6.41h-2.6V37.59h8.18a4.24,4.24,0,0,0,1.25-.28,3.1,3.1,0,0,0,1-.61,2.59,2.59,0,0,0,.63-.92,3.22,3.22,0,0,0,.22-1.24V32.3a1.09,1.09,0,0,0-.08-.46.56.56,0,0,0-.2-.23.58.58,0,0,0-.25-.09H72V47.56H68.4V29.75a1.75,1.75,0,0,1,.14-.7,1.8,1.8,0,0,1,.38-.57,1.73,1.73,0,0,1,.58-.38,1.9,1.9,0,0,1,.72-.14H84a4.42,4.42,0,0,1,2,.43,4.12,4.12,0,0,1,2.11,2.48,4.86,4.86,0,0,1,.23,1.41Z" transform="translate(-23.61 -27.68)"/><path class="cls-1" d="M111.82,28l-9.45,18.91a1.73,1.73,0,0,1-.66.7,1.82,1.82,0,0,1-1,.27,1.8,1.8,0,0,1-1-.27,1.84,1.84,0,0,1-.67-.7L89.69,28h4l7,14.12,7-14.12Z" transform="translate(-23.61 -27.68)"/><path class="cls-1" d="M117.51,47.56H113.9V28h3.62Z" transform="translate(-23.61 -27.68)"/><path class="cls-1" d="M139.6,47.56h-13a5.47,5.47,0,0,1-1.08-.12,5.58,5.58,0,0,1-1.14-.36,5.28,5.28,0,0,1-1.08-.64,4.32,4.32,0,0,1-.91-.94,4.62,4.62,0,0,1-.63-1.29,5.32,5.32,0,0,1-.24-1.65V32.94a5.26,5.26,0,0,1,.12-1.06,5.4,5.4,0,0,1,.37-1.12,5,5,0,0,1,.65-1.06,4.49,4.49,0,0,1,1-.9,4.81,4.81,0,0,1,1.3-.62,5.55,5.55,0,0,1,1.67-.23h13v3.55h-13a1.48,1.48,0,0,0-1.08.37,1.47,1.47,0,0,0-.38,1.09v9.6a1.42,1.42,0,0,0,.38,1.06,1.47,1.47,0,0,0,1.08.38h13Z" transform="translate(-23.61 -27.68)"/><path class="cls-1" d="M161.05,47.56H148a5.89,5.89,0,0,1-1.64-.26,4.84,4.84,0,0,1-1.65-.85,4.79,4.79,0,0,1-1.27-1.54,4.89,4.89,0,0,1-.51-2.33V29.75a1.77,1.77,0,0,1,.14-.7,1.82,1.82,0,0,1,.38-.57,1.72,1.72,0,0,1,.58-.38,1.9,1.9,0,0,1,.72-.14h16.29v3.55h-14.5V42.57a1.43,1.43,0,0,0,.38,1.07A1.5,1.5,0,0,0,148,44h13Zm-1.63-8H148V36h11.42Z" transform="translate(-23.61 -27.68)"/><path class="cls-1" d="M203.39,39.63a8.48,8.48,0,0,1-.63,3.29,7.8,7.8,0,0,1-1.74,2.6,7.88,7.88,0,0,1-2.64,1.7,8.87,8.87,0,0,1-3.32.61h-4.9a8.92,8.92,0,0,1-3.32-.61,7.76,7.76,0,0,1-4.39-4.3,8.41,8.41,0,0,1-.63-3.29V35.88a8.43,8.43,0,0,1,.63-3.29,7.79,7.79,0,0,1,1.75-2.6,8,8,0,0,1,2.64-1.7,8.83,8.83,0,0,1,3.32-.62h4.9a8.78,8.78,0,0,1,3.32.62A8,8,0,0,1,201,30a7.72,7.72,0,0,1,1.74,2.6,8.5,8.5,0,0,1,.63,3.29Zm-3.62-3.75a5.12,5.12,0,0,0-.34-1.91,4.23,4.23,0,0,0-1-1.46,4.31,4.31,0,0,0-1.49-.94,5.28,5.28,0,0,0-1.91-.33h-4.9a5.32,5.32,0,0,0-1.93.33,4.38,4.38,0,0,0-1.5.94,4.16,4.16,0,0,0-1,1.46,5.1,5.1,0,0,0-.34,1.91v3.75a5.1,5.1,0,0,0,.34,1.91,4.15,4.15,0,0,0,1,1.46,4.37,4.37,0,0,0,1.5.94,5.31,5.31,0,0,0,1.93.33H195a5.31,5.31,0,0,0,1.93-.33,4.36,4.36,0,0,0,1.5-.94,4.15,4.15,0,0,0,1-1.46,5.12,5.12,0,0,0,.34-1.91Z" transform="translate(-23.61 -27.68)"/><path class="cls-1" d="M226.9,34.54a7.12,7.12,0,0,1-.31,2.17,6.07,6.07,0,0,1-.83,1.69,5.76,5.76,0,0,1-1.2,1.25,7.24,7.24,0,0,1-1.43.85,6.93,6.93,0,0,1-1.5.49,7.33,7.33,0,0,1-1.43.15l7.55,6.41h-5.59l-7.54-6.41H212V37.59h8.18a4.24,4.24,0,0,0,1.25-.28,3.1,3.1,0,0,0,1-.61,2.59,2.59,0,0,0,.63-.92,3.22,3.22,0,0,0,.22-1.24V32.3a1.09,1.09,0,0,0-.08-.46.56.56,0,0,0-.2-.23.58.58,0,0,0-.25-.09H210.58V47.56H207V29.75a1.75,1.75,0,0,1,.14-.7,1.8,1.8,0,0,1,.38-.57,1.73,1.73,0,0,1,.58-.38,1.9,1.9,0,0,1,.72-.14h13.73a4.42,4.42,0,0,1,2,.43,4.12,4.12,0,0,1,2.11,2.48,4.86,4.86,0,0,1,.23,1.41Z" transform="translate(-23.61 -27.68)"/><path class="cls-1" d="M248.4,47.56h-13a5.47,5.47,0,0,1-1.08-.12,5.58,5.58,0,0,1-1.14-.36,5.28,5.28,0,0,1-1.08-.64,4.32,4.32,0,0,1-.91-.94,4.62,4.62,0,0,1-.63-1.29,5.32,5.32,0,0,1-.24-1.65V32.94a5.26,5.26,0,0,1,.12-1.06,5.4,5.4,0,0,1,.37-1.12,5,5,0,0,1,.65-1.06,4.49,4.49,0,0,1,1-.9,4.81,4.81,0,0,1,1.3-.62,5.55,5.55,0,0,1,1.67-.23h13v3.55h-13a1.48,1.48,0,0,0-1.08.37,1.47,1.47,0,0,0-.38,1.09v9.6a1.42,1.42,0,0,0,.38,1.06,1.47,1.47,0,0,0,1.08.38h13Z" transform="translate(-23.61 -27.68)"/><path class="cls-1" d="M269.85,47.56h-13a5.89,5.89,0,0,1-1.64-.26,4.84,4.84,0,0,1-1.65-.85,4.79,4.79,0,0,1-1.27-1.54,4.89,4.89,0,0,1-.51-2.33V29.75a1.77,1.77,0,0,1,.14-.7,1.82,1.82,0,0,1,.38-.57,1.72,1.72,0,0,1,.58-.38,1.9,1.9,0,0,1,.72-.14h16.29v3.55h-14.5V42.57a1.43,1.43,0,0,0,.38,1.07,1.5,1.5,0,0,0,1.1.37h13Zm-1.63-8H256.8V36h11.42Z" transform="translate(-23.61 -27.68)"/><path class="cls-1" d="M179.4,28h-13a1.9,1.9,0,0,0-.72.14,1.73,1.73,0,0,0-.58.38,1.8,1.8,0,0,0-.38.57,1.75,1.75,0,0,0-.14.7V47.56h3.62V31.51h9.67Z" transform="translate(-23.61 -27.68)"/><polygon class="cls-1" points="152.26 8.29 146 8.29 146 11.87 150.69 11.87 152.26 8.29"/><path class="cls-2" d="M34.77,62.85v10h-.62V64.33q0-.18,0-.39l-3.87,7a.3.3,0,0,1-.28.18h-.11a.3.3,0,0,1-.28-.18l-4-7c0,.14,0,.28,0,.4v8.53h-.62v-10h.49l.15,0a.26.26,0,0,1,.11.11l4,7a2.81,2.81,0,0,1,.18.42l.09-.22.1-.21L34,63a.25.25,0,0,1,.11-.11l.16,0Z" transform="translate(-23.61 -27.68)"/><path class="cls-2" d="M36.92,66.82A4,4,0,0,1,38.06,66a3.12,3.12,0,0,1,1.35-.28,2.41,2.41,0,0,1,1,.18,1.8,1.8,0,0,1,.69.52,2.29,2.29,0,0,1,.41.81,3.8,3.8,0,0,1,.14,1.06v4.58h-.26a.24.24,0,0,1-.26-.2l-.1-.91a6.82,6.82,0,0,1-.57.51,3.42,3.42,0,0,1-.59.38,3,3,0,0,1-.66.24,3.34,3.34,0,0,1-.78.08,2.27,2.27,0,0,1-.69-.11,1.72,1.72,0,0,1-.59-.33,1.55,1.55,0,0,1-.42-.56,2,2,0,0,1-.16-.82,1.48,1.48,0,0,1,.25-.83,2,2,0,0,1,.78-.67A5.15,5.15,0,0,1,39,69.21a11.65,11.65,0,0,1,2-.2v-.74a2.39,2.39,0,0,0-.41-1.5,1.46,1.46,0,0,0-1.23-.53,2.27,2.27,0,0,0-.85.14,3,3,0,0,0-.59.31,3.67,3.67,0,0,0-.4.31.43.43,0,0,1-.26.14.21.21,0,0,1-.12,0A.33.33,0,0,1,37,67ZM41,69.46a12.62,12.62,0,0,0-1.7.16,4.84,4.84,0,0,0-1.17.34,1.76,1.76,0,0,0-.68.51,1.08,1.08,0,0,0-.22.67,1.5,1.5,0,0,0,.11.61,1.2,1.2,0,0,0,.31.42,1.21,1.21,0,0,0,.44.24,1.74,1.74,0,0,0,.52.08,2.92,2.92,0,0,0,.74-.09,2.69,2.69,0,0,0,.63-.25,3.09,3.09,0,0,0,.54-.38c.17-.15.33-.3.49-.47Z" transform="translate(-23.61 -27.68)"/><path class="cls-2" d="M44.47,67.05a4,4,0,0,1,1.11-1,2.72,2.72,0,0,1,1.4-.37,2.57,2.57,0,0,1,1,.18,1.86,1.86,0,0,1,.72.53,2.37,2.37,0,0,1,.43.83,3.87,3.87,0,0,1,.15,1.1v4.5h-.67v-4.5a2.44,2.44,0,0,0-.44-1.55,1.62,1.62,0,0,0-1.35-.56,2.41,2.41,0,0,0-1.26.35,3.57,3.57,0,0,0-1,1v5.29h-.67v-7h.37a.19.19,0,0,1,.2.18Z" transform="translate(-23.61 -27.68)"/><path class="cls-2" d="M51.28,66.82A4,4,0,0,1,52.42,66a3.12,3.12,0,0,1,1.35-.28,2.41,2.41,0,0,1,1,.18,1.8,1.8,0,0,1,.69.52,2.29,2.29,0,0,1,.41.81A3.8,3.8,0,0,1,56,68.28v4.58h-.26a.24.24,0,0,1-.26-.2l-.1-.91a6.82,6.82,0,0,1-.57.51,3.42,3.42,0,0,1-.59.38,3,3,0,0,1-.66.24,3.34,3.34,0,0,1-.78.08,2.27,2.27,0,0,1-.69-.11,1.72,1.72,0,0,1-.59-.33,1.55,1.55,0,0,1-.42-.56,2,2,0,0,1-.16-.82,1.48,1.48,0,0,1,.25-.83,2,2,0,0,1,.78-.67,5.15,5.15,0,0,1,1.37-.45,11.65,11.65,0,0,1,2-.2v-.74a2.39,2.39,0,0,0-.41-1.5,1.46,1.46,0,0,0-1.23-.53,2.27,2.27,0,0,0-.85.14,3,3,0,0,0-.59.31,3.67,3.67,0,0,0-.4.31.43.43,0,0,1-.26.14.21.21,0,0,1-.12,0A.33.33,0,0,1,51.4,67Zm4.06,2.64a12.62,12.62,0,0,0-1.7.16,4.84,4.84,0,0,0-1.17.34,1.76,1.76,0,0,0-.68.51,1.08,1.08,0,0,0-.22.67,1.5,1.5,0,0,0,.11.61,1.2,1.2,0,0,0,.31.42,1.21,1.21,0,0,0,.44.24,1.74,1.74,0,0,0,.52.08,2.92,2.92,0,0,0,.74-.09,2.69,2.69,0,0,0,.63-.25,3.09,3.09,0,0,0,.54-.38c.17-.15.33-.3.49-.47Z" transform="translate(-23.61 -27.68)"/><path class="cls-2" d="M63.76,66.13v.23c0,.1-.07.17-.19.19l-1.06.08a2.08,2.08,0,0,1,.3.6,2.4,2.4,0,0,1,.1.72,2.33,2.33,0,0,1-.18.92,2,2,0,0,1-.5.71,2.29,2.29,0,0,1-.78.46,3,3,0,0,1-1,.16A3,3,0,0,1,59.38,70a1.53,1.53,0,0,0-.46.4.77.77,0,0,0-.17.46.55.55,0,0,0,.21.47,1.37,1.37,0,0,0,.56.24,4.78,4.78,0,0,0,.79.09l.9,0c.31,0,.61,0,.9.09a2.85,2.85,0,0,1,.78.22,1.42,1.42,0,0,1,.56.45,1.25,1.25,0,0,1,.21.76,1.77,1.77,0,0,1-.21.84,2.22,2.22,0,0,1-.62.71,3.27,3.27,0,0,1-1,.5,4.17,4.17,0,0,1-1.29.19,4.8,4.8,0,0,1-1.28-.15,3,3,0,0,1-.92-.41,1.77,1.77,0,0,1-.56-.6,1.47,1.47,0,0,1-.19-.72,1.38,1.38,0,0,1,.36-1,2.4,2.4,0,0,1,1-.63,1.33,1.33,0,0,1-.56-.35.89.89,0,0,1-.21-.63,1,1,0,0,1,.06-.31,1.33,1.33,0,0,1,.17-.32,1.76,1.76,0,0,1,.27-.3,2.07,2.07,0,0,1,.36-.25,2.08,2.08,0,0,1-.77-.77A2.22,2.22,0,0,1,58,68a2.33,2.33,0,0,1,.18-.92,2,2,0,0,1,.5-.71,2.3,2.3,0,0,1,.78-.46,3,3,0,0,1,1-.16,3,3,0,0,1,.84.11,2.47,2.47,0,0,1,.69.32ZM63,73.34a.8.8,0,0,0-.17-.53,1.13,1.13,0,0,0-.46-.32,2.69,2.69,0,0,0-.66-.16L61,72.26l-.82,0a6.12,6.12,0,0,1-.77-.08,3.14,3.14,0,0,0-.49.24,1.77,1.77,0,0,0-.38.31,1.39,1.39,0,0,0-.25.39,1.15,1.15,0,0,0,.07,1,1.39,1.39,0,0,0,.46.46,2.54,2.54,0,0,0,.74.31,4,4,0,0,0,1,.11,3.79,3.79,0,0,0,1-.12,2.72,2.72,0,0,0,.79-.34,1.73,1.73,0,0,0,.53-.52A1.23,1.23,0,0,0,63,73.34Zm-2.58-3.59a2.24,2.24,0,0,0,.79-.13,1.64,1.64,0,0,0,.58-.36,1.58,1.58,0,0,0,.36-.56,2,2,0,0,0,.13-.72,2,2,0,0,0-.13-.72,1.58,1.58,0,0,0-.37-.56,1.65,1.65,0,0,0-.58-.36,2.47,2.47,0,0,0-1.56,0,1.65,1.65,0,0,0-.58.36,1.55,1.55,0,0,0-.36.56,2,2,0,0,0-.12.72,2,2,0,0,0,.13.72,1.55,1.55,0,0,0,.36.56,1.68,1.68,0,0,0,.58.36A2.19,2.19,0,0,0,60.46,69.75Z" transform="translate(-23.61 -27.68)"/><path class="cls-2" d="M65.44,69.06v.13a4.87,4.87,0,0,0,.18,1.39,2.88,2.88,0,0,0,.51,1,2.13,2.13,0,0,0,.81.61,2.63,2.63,0,0,0,1.06.21,3.1,3.1,0,0,0,.9-.12,3.23,3.23,0,0,0,.64-.26,3.31,3.31,0,0,0,.41-.26.47.47,0,0,1,.22-.12.16.16,0,0,1,.14.07l.18.23a1.89,1.89,0,0,1-.44.4,3.19,3.19,0,0,1-.61.32,4.51,4.51,0,0,1-.72.21,3.92,3.92,0,0,1-.77.08,3.24,3.24,0,0,1-1.29-.25,2.74,2.74,0,0,1-1-.73A3.34,3.34,0,0,1,65,70.79a5.18,5.18,0,0,1-.23-1.6A4.41,4.41,0,0,1,65,67.8a3.21,3.21,0,0,1,.61-1.1,2.79,2.79,0,0,1,1-.73,3.18,3.18,0,0,1,1.32-.26,2.83,2.83,0,0,1,1.08.21,2.44,2.44,0,0,1,.87.6,2.81,2.81,0,0,1,.58,1,3.77,3.77,0,0,1,.21,1.32.37.37,0,0,1,0,.21.16.16,0,0,1-.14.06ZM70,68.63a3.08,3.08,0,0,0-.16-1,2.16,2.16,0,0,0-.44-.76,1.93,1.93,0,0,0-.68-.48,2.2,2.2,0,0,0-.86-.17,2.55,2.55,0,0,0-1,.17,2.1,2.1,0,0,0-.73.49,2.44,2.44,0,0,0-.5.76,3.59,3.59,0,0,0-.25,1Z" transform="translate(-23.61 -27.68)"/><path class="cls-2" d="M77.82,62.57V72.86h-.36a.19.19,0,0,1-.21-.18l-.07-1.11a3.67,3.67,0,0,1-1.07,1,2.57,2.57,0,0,1-1.37.38,2.38,2.38,0,0,1-2-.9,4.3,4.3,0,0,1-.71-2.7,5,5,0,0,1,.2-1.44,3.5,3.5,0,0,1,.58-1.16,2.74,2.74,0,0,1,.94-.77A2.82,2.82,0,0,1,75,65.7a2.64,2.64,0,0,1,1.22.26,2.57,2.57,0,0,1,.9.78V62.57Zm-.66,4.77a2.41,2.41,0,0,0-3-.88,2.12,2.12,0,0,0-.77.64,2.9,2.9,0,0,0-.46,1,4.84,4.84,0,0,0-.16,1.27,3.81,3.81,0,0,0,.57,2.31,1.94,1.94,0,0,0,1.64.74A2.26,2.26,0,0,0,76.17,72a3.42,3.42,0,0,0,1-1Z" transform="translate(-23.61 -27.68)"/><path class="cls-2" d="M84.9,63.45v4.21h4.48v.6H84.9v4.6h-.72v-10h5.89v.6Z" transform="translate(-23.61 -27.68)"/><path class="cls-2" d="M92.68,63.4a.54.54,0,0,1-.05.24.69.69,0,0,1-.13.19.64.64,0,0,1-.19.13.59.59,0,0,1-.47,0,.63.63,0,0,1-.19-.13.65.65,0,0,1-.13-.19.58.58,0,0,1,0-.24.63.63,0,0,1,.38-.58.59.59,0,0,1,.47,0,.64.64,0,0,1,.19.13.67.67,0,0,1,.13.2A.58.58,0,0,1,92.68,63.4Zm-.29,2.43v7h-.66v-7Z" transform="translate(-23.61 -27.68)"/><path class="cls-2" d="M95,69.06v.13a4.87,4.87,0,0,0,.18,1.39,2.88,2.88,0,0,0,.51,1,2.13,2.13,0,0,0,.81.61,2.63,2.63,0,0,0,1.06.21,3.1,3.1,0,0,0,.9-.12,3.23,3.23,0,0,0,.64-.26,3.31,3.31,0,0,0,.41-.26.47.47,0,0,1,.22-.12.16.16,0,0,1,.14.07L100,72a1.89,1.89,0,0,1-.44.4,3.19,3.19,0,0,1-.61.32,4.51,4.51,0,0,1-.72.21,3.92,3.92,0,0,1-.77.08,3.24,3.24,0,0,1-1.29-.25,2.74,2.74,0,0,1-1-.73,3.34,3.34,0,0,1-.64-1.18,5.18,5.18,0,0,1-.23-1.6,4.41,4.41,0,0,1,.21-1.4,3.21,3.21,0,0,1,.61-1.1,2.79,2.79,0,0,1,1-.73,3.18,3.18,0,0,1,1.32-.26,2.83,2.83,0,0,1,1.08.21,2.44,2.44,0,0,1,.87.6,2.81,2.81,0,0,1,.58,1,3.77,3.77,0,0,1,.21,1.32.37.37,0,0,1,0,.21.16.16,0,0,1-.14.06Zm4.61-.43a3.08,3.08,0,0,0-.16-1,2.16,2.16,0,0,0-.44-.76,1.93,1.93,0,0,0-.68-.48,2.2,2.2,0,0,0-.86-.17,2.55,2.55,0,0,0-1,.17,2.1,2.1,0,0,0-.73.49,2.44,2.44,0,0,0-.5.76,3.59,3.59,0,0,0-.25,1Z" transform="translate(-23.61 -27.68)"/><path class="cls-2" d="M102.73,62.57V72.86h-.67V62.57Z" transform="translate(-23.61 -27.68)"/><path class="cls-2" d="M110.44,62.57V72.86h-.36a.19.19,0,0,1-.21-.18l-.07-1.11a3.67,3.67,0,0,1-1.07,1,2.57,2.57,0,0,1-1.37.38,2.38,2.38,0,0,1-2-.9,4.3,4.3,0,0,1-.71-2.7,5,5,0,0,1,.2-1.44,3.5,3.5,0,0,1,.58-1.16,2.74,2.74,0,0,1,.94-.77,2.82,2.82,0,0,1,1.29-.28,2.64,2.64,0,0,1,1.22.26,2.57,2.57,0,0,1,.9.78V62.57Zm-.66,4.77a2.41,2.41,0,0,0-3-.88,2.12,2.12,0,0,0-.77.64,2.9,2.9,0,0,0-.46,1,4.84,4.84,0,0,0-.16,1.27,3.81,3.81,0,0,0,.57,2.31,1.94,1.94,0,0,0,1.64.74,2.26,2.26,0,0,0,1.24-.36,3.42,3.42,0,0,0,1-1Z" transform="translate(-23.61 -27.68)"/><path class="cls-2" d="M121.58,64.07a.19.19,0,0,1-.18.12.39.39,0,0,1-.23-.13,3.1,3.1,0,0,0-.39-.29,3,3,0,0,0-.61-.29,3,3,0,0,0-1.84,0,2,2,0,0,0-.68.43,1.81,1.81,0,0,0-.42.62,2,2,0,0,0-.14.74,1.54,1.54,0,0,0,.21.84,1.92,1.92,0,0,0,.56.57,3.65,3.65,0,0,0,.79.39l.91.31q.46.16.91.34a3.26,3.26,0,0,1,.79.47,2.14,2.14,0,0,1,.56.7,2.24,2.24,0,0,1,.21,1,3.29,3.29,0,0,1-.21,1.19,2.76,2.76,0,0,1-.61,1,2.89,2.89,0,0,1-1,.65,3.51,3.51,0,0,1-1.33.24,3.71,3.71,0,0,1-1.67-.35,4,4,0,0,1-1.23-1l.19-.31a.24.24,0,0,1,.19-.11.28.28,0,0,1,.16.09l.24.21.33.27a2.68,2.68,0,0,0,.45.27,3.2,3.2,0,0,0,.59.21,3.07,3.07,0,0,0,.76.08,2.83,2.83,0,0,0,1-.18,2.28,2.28,0,0,0,.77-.49,2.09,2.09,0,0,0,.48-.74,2.51,2.51,0,0,0,.17-.92,1.65,1.65,0,0,0-.21-.87,1.84,1.84,0,0,0-.56-.57,3.52,3.52,0,0,0-.79-.39l-.91-.3q-.47-.15-.91-.33a3.11,3.11,0,0,1-.79-.47,2.15,2.15,0,0,1-.56-.71,2.41,2.41,0,0,1-.21-1.07,2.57,2.57,0,0,1,.19-1,2.4,2.4,0,0,1,.55-.82,2.7,2.7,0,0,1,.89-.57,3.2,3.2,0,0,1,1.21-.21,3.61,3.61,0,0,1,1.37.25,3.28,3.28,0,0,1,1.11.76Z" transform="translate(-23.61 -27.68)"/><path class="cls-2" d="M124.09,69.06v.13a4.87,4.87,0,0,0,.18,1.39,2.88,2.88,0,0,0,.51,1,2.13,2.13,0,0,0,.81.61,2.63,2.63,0,0,0,1.06.21,3.1,3.1,0,0,0,.9-.12,3.23,3.23,0,0,0,.64-.26,3.31,3.31,0,0,0,.41-.26.47.47,0,0,1,.22-.12.16.16,0,0,1,.14.07l.18.23a1.89,1.89,0,0,1-.44.4,3.19,3.19,0,0,1-.61.32,4.51,4.51,0,0,1-.72.21,3.92,3.92,0,0,1-.77.08,3.24,3.24,0,0,1-1.29-.25,2.74,2.74,0,0,1-1-.73,3.34,3.34,0,0,1-.64-1.18,5.18,5.18,0,0,1-.23-1.6,4.41,4.41,0,0,1,.21-1.4,3.21,3.21,0,0,1,.61-1.1,2.79,2.79,0,0,1,1-.73,3.18,3.18,0,0,1,1.32-.26,2.83,2.83,0,0,1,1.08.21,2.44,2.44,0,0,1,.87.6,2.81,2.81,0,0,1,.58,1,3.77,3.77,0,0,1,.21,1.32.37.37,0,0,1,0,.21.16.16,0,0,1-.14.06Zm4.61-.43a3.08,3.08,0,0,0-.16-1,2.16,2.16,0,0,0-.44-.76,1.93,1.93,0,0,0-.68-.48,2.2,2.2,0,0,0-.86-.17,2.55,2.55,0,0,0-1,.17,2.1,2.1,0,0,0-.73.49,2.44,2.44,0,0,0-.5.76,3.59,3.59,0,0,0-.25,1Z" transform="translate(-23.61 -27.68)"/><path class="cls-2" d="M131.73,67.52a4.38,4.38,0,0,1,.36-.77,2.41,2.41,0,0,1,.47-.57,1.91,1.91,0,0,1,.6-.36,2.08,2.08,0,0,1,.73-.12,2.27,2.27,0,0,1,.42,0,1.06,1.06,0,0,1,.37.14l-.06.47a.13.13,0,0,1-.13.11,1,1,0,0,1-.25,0,1.65,1.65,0,0,0-.45-.05,1.89,1.89,0,0,0-.71.13,1.63,1.63,0,0,0-.56.37,2.4,2.4,0,0,0-.43.61,5.85,5.85,0,0,0-.34.84v4.56h-.67v-7h.35a.23.23,0,0,1,.17,0,.29.29,0,0,1,.06.17Z" transform="translate(-23.61 -27.68)"/><path class="cls-2" d="M141.56,65.82l-2.92,7h-.58l-2.92-7h.52a.24.24,0,0,1,.16.05.26.26,0,0,1,.08.12l2.28,5.55a5.22,5.22,0,0,1,.17.62,4.61,4.61,0,0,1,.17-.62L140.82,66a.32.32,0,0,1,.09-.12.23.23,0,0,1,.14,0Z" transform="translate(-23.61 -27.68)"/><path class="cls-2" d="M144,63.4a.54.54,0,0,1-.05.24.69.69,0,0,1-.13.19.64.64,0,0,1-.19.13.59.59,0,0,1-.47,0,.63.63,0,0,1-.19-.13.65.65,0,0,1-.13-.19.58.58,0,0,1,0-.24.63.63,0,0,1,.38-.58.59.59,0,0,1,.47,0,.64.64,0,0,1,.19.13.67.67,0,0,1,.13.2A.58.58,0,0,1,144,63.4Zm-.29,2.43v7H143v-7Z" transform="translate(-23.61 -27.68)"/><path class="cls-2" d="M150.71,66.76l-.07.06a.14.14,0,0,1-.09,0,.34.34,0,0,1-.19-.09,2.39,2.39,0,0,0-.32-.21,2.66,2.66,0,0,0-.5-.21,2.42,2.42,0,0,0-.73-.1,2.49,2.49,0,0,0-1.06.21,2.15,2.15,0,0,0-.78.62,2.78,2.78,0,0,0-.48,1,4.68,4.68,0,0,0-.16,1.29,4.63,4.63,0,0,0,.17,1.32,2.82,2.82,0,0,0,.48,1,2.06,2.06,0,0,0,.76.6,2.31,2.31,0,0,0,1,.21,2.51,2.51,0,0,0,.84-.12,2.67,2.67,0,0,0,.56-.26,2.29,2.29,0,0,0,.34-.26.34.34,0,0,1,.21-.12.17.17,0,0,1,.14.07L151,72a2,2,0,0,1-.4.4,2.75,2.75,0,0,1-.55.32,3.31,3.31,0,0,1-.66.21,3.57,3.57,0,0,1-.75.07,2.89,2.89,0,0,1-1.21-.24,2.6,2.6,0,0,1-.94-.71,3.32,3.32,0,0,1-.61-1.13,5.38,5.38,0,0,1,0-3,3.29,3.29,0,0,1,.61-1.15,2.77,2.77,0,0,1,1-.75,3.17,3.17,0,0,1,1.33-.27,3,3,0,0,1,1.19.22,2.93,2.93,0,0,1,.91.59Z" transform="translate(-23.61 -27.68)"/><path class="cls-2" d="M152.72,69.06v.13a4.87,4.87,0,0,0,.18,1.39,2.88,2.88,0,0,0,.51,1,2.13,2.13,0,0,0,.81.61,2.63,2.63,0,0,0,1.06.21,3.1,3.1,0,0,0,.9-.12,3.23,3.23,0,0,0,.64-.26,3.31,3.31,0,0,0,.41-.26.47.47,0,0,1,.22-.12.16.16,0,0,1,.14.07l.18.23a1.89,1.89,0,0,1-.44.4,3.19,3.19,0,0,1-.61.32,4.51,4.51,0,0,1-.72.21,3.92,3.92,0,0,1-.77.08,3.24,3.24,0,0,1-1.29-.25,2.74,2.74,0,0,1-1-.73,3.34,3.34,0,0,1-.64-1.18,5.18,5.18,0,0,1-.23-1.6,4.41,4.41,0,0,1,.21-1.4,3.21,3.21,0,0,1,.61-1.1,2.79,2.79,0,0,1,1-.73,3.18,3.18,0,0,1,1.32-.26,2.83,2.83,0,0,1,1.08.21,2.44,2.44,0,0,1,.87.6,2.81,2.81,0,0,1,.58,1,3.77,3.77,0,0,1,.21,1.32.37.37,0,0,1,0,.21.16.16,0,0,1-.14.06Zm4.61-.43a3.08,3.08,0,0,0-.16-1,2.16,2.16,0,0,0-.44-.76,1.93,1.93,0,0,0-.68-.48,2.2,2.2,0,0,0-.86-.17,2.55,2.55,0,0,0-1,.17,2.1,2.1,0,0,0-.73.49,2.44,2.44,0,0,0-.5.76,3.59,3.59,0,0,0-.25,1Z" transform="translate(-23.61 -27.68)"/><path class="cls-2" d="M172.09,67.85a6,6,0,0,1-.34,2.09,4.5,4.5,0,0,1-1,1.58,4.15,4.15,0,0,1-1.48,1,5.09,5.09,0,0,1-1.91.35h-3.59v-10h3.59a5.09,5.09,0,0,1,1.91.35,4.15,4.15,0,0,1,1.48,1,4.51,4.51,0,0,1,1,1.58A6,6,0,0,1,172.09,67.85Zm-.74,0a5.66,5.66,0,0,0-.29-1.87,3.9,3.9,0,0,0-.81-1.39,3.43,3.43,0,0,0-1.25-.86,4.23,4.23,0,0,0-1.61-.3h-2.87v8.84h2.88A4.23,4.23,0,0,0,169,72a3.43,3.43,0,0,0,1.25-.86,3.9,3.9,0,0,0,.81-1.39A5.69,5.69,0,0,0,171.35,67.85Z" transform="translate(-23.61 -27.68)"/><path class="cls-2" d="M174.18,69.06v.13a4.87,4.87,0,0,0,.18,1.39,2.88,2.88,0,0,0,.51,1,2.13,2.13,0,0,0,.81.61,2.63,2.63,0,0,0,1.06.21,3.1,3.1,0,0,0,.9-.12,3.23,3.23,0,0,0,.64-.26,3.31,3.31,0,0,0,.41-.26.47.47,0,0,1,.22-.12.16.16,0,0,1,.14.07l.18.23a1.89,1.89,0,0,1-.44.4,3.19,3.19,0,0,1-.61.32,4.51,4.51,0,0,1-.72.21,3.92,3.92,0,0,1-.77.08,3.24,3.24,0,0,1-1.29-.25,2.74,2.74,0,0,1-1-.73,3.34,3.34,0,0,1-.64-1.18,5.18,5.18,0,0,1-.23-1.6,4.41,4.41,0,0,1,.21-1.4,3.21,3.21,0,0,1,.61-1.1,2.79,2.79,0,0,1,1-.73,3.18,3.18,0,0,1,1.32-.26,2.83,2.83,0,0,1,1.08.21,2.44,2.44,0,0,1,.87.6,2.81,2.81,0,0,1,.58,1,3.77,3.77,0,0,1,.21,1.32.37.37,0,0,1,0,.21.16.16,0,0,1-.14.06Zm4.61-.43a3.08,3.08,0,0,0-.16-1,2.16,2.16,0,0,0-.44-.76,1.93,1.93,0,0,0-.68-.48,2.2,2.2,0,0,0-.86-.17,2.55,2.55,0,0,0-1,.17,2.1,2.1,0,0,0-.73.49,2.44,2.44,0,0,0-.5.76,3.59,3.59,0,0,0-.25,1Z" transform="translate(-23.61 -27.68)"/><path class="cls-2" d="M181.92,62.57V72.86h-.67V62.57Z" transform="translate(-23.61 -27.68)"/><path class="cls-2" d="M185.28,63.4a.54.54,0,0,1-.05.24.69.69,0,0,1-.13.19.64.64,0,0,1-.19.13.59.59,0,0,1-.47,0,.63.63,0,0,1-.19-.13.65.65,0,0,1-.13-.19.58.58,0,0,1,0-.24.63.63,0,0,1,.38-.58.59.59,0,0,1,.47,0,.64.64,0,0,1,.19.13.67.67,0,0,1,.13.2A.58.58,0,0,1,185.28,63.4ZM185,65.82v7h-.66v-7Z" transform="translate(-23.61 -27.68)"/><path class="cls-2" d="M192.9,65.82l-2.92,7h-.58l-2.92-7H187a.24.24,0,0,1,.16.05.26.26,0,0,1,.08.12l2.28,5.55a5.22,5.22,0,0,1,.17.62,4.61,4.61,0,0,1,.17-.62L192.17,66a.32.32,0,0,1,.09-.12.23.23,0,0,1,.14,0Z" transform="translate(-23.61 -27.68)"/><path class="cls-2" d="M194.39,69.06v.13a4.87,4.87,0,0,0,.18,1.39,2.88,2.88,0,0,0,.51,1,2.13,2.13,0,0,0,.81.61,2.63,2.63,0,0,0,1.06.21,3.1,3.1,0,0,0,.9-.12,3.23,3.23,0,0,0,.64-.26,3.31,3.31,0,0,0,.41-.26.47.47,0,0,1,.22-.12.16.16,0,0,1,.14.07l.18.23a1.89,1.89,0,0,1-.44.4,3.19,3.19,0,0,1-.61.32,4.51,4.51,0,0,1-.72.21,3.92,3.92,0,0,1-.77.08,3.24,3.24,0,0,1-1.29-.25,2.74,2.74,0,0,1-1-.73,3.34,3.34,0,0,1-.64-1.18,5.18,5.18,0,0,1-.23-1.6,4.41,4.41,0,0,1,.21-1.4,3.21,3.21,0,0,1,.61-1.1,2.79,2.79,0,0,1,1-.73,3.18,3.18,0,0,1,1.32-.26,2.83,2.83,0,0,1,1.08.21,2.44,2.44,0,0,1,.87.6,2.81,2.81,0,0,1,.58,1,3.77,3.77,0,0,1,.21,1.32.37.37,0,0,1,0,.21.16.16,0,0,1-.14.06Zm4.61-.43a3.08,3.08,0,0,0-.16-1,2.16,2.16,0,0,0-.44-.76,1.93,1.93,0,0,0-.68-.48,2.2,2.2,0,0,0-.86-.17,2.55,2.55,0,0,0-1,.17,2.1,2.1,0,0,0-.73.49,2.44,2.44,0,0,0-.5.76,3.59,3.59,0,0,0-.25,1Z" transform="translate(-23.61 -27.68)"/><path class="cls-2" d="M202,67.52a4.38,4.38,0,0,1,.36-.77,2.41,2.41,0,0,1,.47-.57,1.91,1.91,0,0,1,.6-.36,2.08,2.08,0,0,1,.73-.12,2.27,2.27,0,0,1,.42,0,1.06,1.06,0,0,1,.37.14l-.06.47a.13.13,0,0,1-.13.11,1,1,0,0,1-.25,0,1.65,1.65,0,0,0-.45-.05,1.89,1.89,0,0,0-.71.13,1.63,1.63,0,0,0-.56.37,2.4,2.4,0,0,0-.43.61,5.85,5.85,0,0,0-.34.84v4.56h-.67v-7h.35a.23.23,0,0,1,.17,0A.29.29,0,0,1,202,66Z" transform="translate(-23.61 -27.68)"/><path class="cls-2" d="M211.89,65.82l-4,9.3a.49.49,0,0,1-.11.16.27.27,0,0,1-.19.06h-.47l1.21-2.75-2.92-6.78H206a.25.25,0,0,1,.25.17l2.33,5.48c0,.07.05.14.07.21l.06.22.07-.22.08-.21,2.3-5.48a.3.3,0,0,1,.1-.12.23.23,0,0,1,.14,0Z" transform="translate(-23.61 -27.68)"/><path class="cls-2" d="M219.56,62.85a3.85,3.85,0,0,1,2.61.77,2.77,2.77,0,0,1,.88,2.2A3,3,0,0,1,222.8,67a2.72,2.72,0,0,1-.7,1,3.24,3.24,0,0,1-1.1.62,4.44,4.44,0,0,1-1.45.22h-1.83v4H217v-10Zm0,5.4a3.42,3.42,0,0,0,1.16-.18,2.54,2.54,0,0,0,.87-.51,2.21,2.21,0,0,0,.55-.77,2.4,2.4,0,0,0,.19-1,2.26,2.26,0,0,0-.69-1.78,3,3,0,0,0-2.08-.62h-1.83v4.83Z" transform="translate(-23.61 -27.68)"/><path class="cls-2" d="M225.38,62.57V72.86h-.67V62.57Z" transform="translate(-23.61 -27.68)"/><path class="cls-2" d="M227.53,66.82a4,4,0,0,1,1.14-.83A3.12,3.12,0,0,1,230,65.7a2.41,2.41,0,0,1,1,.18,1.8,1.8,0,0,1,.69.52,2.29,2.29,0,0,1,.41.81,3.8,3.8,0,0,1,.14,1.06v4.58H232a.24.24,0,0,1-.26-.2l-.1-.91a6.82,6.82,0,0,1-.57.51,3.42,3.42,0,0,1-.59.38,3,3,0,0,1-.66.24A3.34,3.34,0,0,1,229,73a2.27,2.27,0,0,1-.69-.11,1.72,1.72,0,0,1-.59-.33,1.55,1.55,0,0,1-.42-.56,2,2,0,0,1-.16-.82,1.48,1.48,0,0,1,.25-.83,2,2,0,0,1,.78-.67,5.15,5.15,0,0,1,1.37-.45,11.65,11.65,0,0,1,2-.2v-.74a2.39,2.39,0,0,0-.41-1.5,1.46,1.46,0,0,0-1.23-.53,2.27,2.27,0,0,0-.85.14,3,3,0,0,0-.59.31,3.67,3.67,0,0,0-.4.31.43.43,0,0,1-.26.14.21.21,0,0,1-.12,0,.33.33,0,0,1-.08-.09Zm4.06,2.64a12.62,12.62,0,0,0-1.7.16,4.84,4.84,0,0,0-1.17.34,1.76,1.76,0,0,0-.68.51,1.08,1.08,0,0,0-.22.67,1.5,1.5,0,0,0,.11.61,1.2,1.2,0,0,0,.31.42,1.21,1.21,0,0,0,.44.24,1.74,1.74,0,0,0,.52.08,2.92,2.92,0,0,0,.74-.09,2.69,2.69,0,0,0,.63-.25,3.09,3.09,0,0,0,.54-.38c.17-.15.33-.3.49-.47Z" transform="translate(-23.61 -27.68)"/><path class="cls-2" d="M239.34,72.86V66.54h-3.9v4.78a1.51,1.51,0,0,0,.07.5,1,1,0,0,0,.2.34.8.8,0,0,0,.3.2,1.07,1.07,0,0,0,.38.06,1.14,1.14,0,0,0,.43-.07,1.82,1.82,0,0,0,.31-.16l.21-.16a.24.24,0,0,1,.13-.07.15.15,0,0,1,.11.07l.18.3a1.93,1.93,0,0,1-.67.48,2.06,2.06,0,0,1-.84.18,1.46,1.46,0,0,1-1.09-.4,1.68,1.68,0,0,1-.39-1.22V66.54h-1a.19.19,0,0,1-.12,0,.15.15,0,0,1,0-.12v-.26l1.18-.08.17-2.52a.25.25,0,0,1,.06-.11.15.15,0,0,1,.12,0h.31V66h3.9v-.89a3.31,3.31,0,0,1,.15-1.06,2.1,2.1,0,0,1,.43-.76,1.74,1.74,0,0,1,.67-.46,2.35,2.35,0,0,1,.86-.15,2.45,2.45,0,0,1,.43,0,1.85,1.85,0,0,1,.39.11l0,.33a.09.09,0,0,1-.05.08h-.13l-.21,0-.31,0a1.87,1.87,0,0,0-.63.1,1.22,1.22,0,0,0-.5.33,1.54,1.54,0,0,0-.32.59,3,3,0,0,0-.11.9V66h2.24v.5H240v6.32Z" transform="translate(-23.61 -27.68)"/><path class="cls-2" d="M246.12,65.71a3.27,3.27,0,0,1,1.33.26,2.73,2.73,0,0,1,1,.73,3.26,3.26,0,0,1,.61,1.14,5.38,5.38,0,0,1,0,3,3.26,3.26,0,0,1-.61,1.14,2.67,2.67,0,0,1-1,.73,3.61,3.61,0,0,1-2.66,0,2.71,2.71,0,0,1-1-.73,3.22,3.22,0,0,1-.62-1.14,5.38,5.38,0,0,1,0-3,3.22,3.22,0,0,1,.62-1.14,2.76,2.76,0,0,1,1-.73A3.28,3.28,0,0,1,246.12,65.71Zm0,6.71a2.52,2.52,0,0,0,1.08-.22,2,2,0,0,0,.77-.62,2.76,2.76,0,0,0,.46-1,5.41,5.41,0,0,0,0-2.55,2.8,2.8,0,0,0-.46-1,2.07,2.07,0,0,0-.77-.63,2.77,2.77,0,0,0-2.16,0,2.07,2.07,0,0,0-.77.63,2.82,2.82,0,0,0-.46,1,5.28,5.28,0,0,0,0,2.55,2.78,2.78,0,0,0,.46,1,2,2,0,0,0,.77.62A2.51,2.51,0,0,0,246.12,72.42Z" transform="translate(-23.61 -27.68)"/><path class="cls-2" d="M251.76,67.52a4.38,4.38,0,0,1,.36-.77,2.41,2.41,0,0,1,.47-.57,1.91,1.91,0,0,1,.6-.36,2.08,2.08,0,0,1,.73-.12,2.27,2.27,0,0,1,.42,0,1.06,1.06,0,0,1,.37.14l-.06.47a.13.13,0,0,1-.13.11,1,1,0,0,1-.25,0,1.65,1.65,0,0,0-.45-.05,1.89,1.89,0,0,0-.71.13,1.63,1.63,0,0,0-.56.37,2.4,2.4,0,0,0-.43.61,5.85,5.85,0,0,0-.34.84v4.56h-.67v-7h.35a.23.23,0,0,1,.17,0,.29.29,0,0,1,.06.17Z" transform="translate(-23.61 -27.68)"/><path class="cls-2" d="M256,72.86v-7h.37a.19.19,0,0,1,.2.18l.06,1a3.63,3.63,0,0,1,.92-.95,2,2,0,0,1,1.17-.36,1.66,1.66,0,0,1,1.21.45,2.33,2.33,0,0,1,.62,1.24,2.49,2.49,0,0,1,.35-.75,2.23,2.23,0,0,1,.52-.53,2.07,2.07,0,0,1,.63-.31,2.53,2.53,0,0,1,.71-.1,2.36,2.36,0,0,1,.92.17,1.81,1.81,0,0,1,.69.51,2.36,2.36,0,0,1,.44.83,3.81,3.81,0,0,1,.15,1.13v4.5h-.66v-4.5a2.45,2.45,0,0,0-.44-1.57,1.51,1.51,0,0,0-1.25-.54,1.83,1.83,0,0,0-.69.13,1.67,1.67,0,0,0-.58.4,1.91,1.91,0,0,0-.4.66,2.6,2.6,0,0,0-.15.92v4.5h-.67v-4.5a2.63,2.63,0,0,0-.4-1.57,1.36,1.36,0,0,0-1.17-.54,1.76,1.76,0,0,0-1,.34,3.23,3.23,0,0,0-.85.94v5.33Z" transform="translate(-23.61 -27.68)"/><path class="cls-2" d="M267.19,72.32a.66.66,0,0,1,0-.25.63.63,0,0,1,.13-.21.68.68,0,0,1,.2-.14.58.58,0,0,1,.25-.05.59.59,0,0,1,.25.05.66.66,0,0,1,.21.14.67.67,0,0,1,.14.21.63.63,0,0,1,.05.25.62.62,0,0,1-.05.26.68.68,0,0,1-.14.21.61.61,0,0,1-.21.14.63.63,0,0,1-.25,0,.61.61,0,0,1-.46-.19A.64.64,0,0,1,267.19,72.32Zm1-9.46v4c0,.21,0,.41,0,.6s0,.38,0,.58,0,.4,0,.62,0,.46,0,.72h-.45c0-.26,0-.5,0-.72s0-.42,0-.62,0-.39,0-.58,0-.39,0-.6v-4Z" transform="translate(-23.61 -27.68)"/><rect class="cls-3" y="27.69" width="249.14" height="0.25"/></svg>