<svg id="Layer_1" data-name="Layer 1" xmlns="http://www.w3.org/2000/svg" viewBox="0 0 40.07 39.88"><defs><style>.cls-1{fill:#397ebf;}</style></defs><title>logo-S-blue</title><path class="cls-1" d="M8.31,3.82l-.47.35c.09,0,0,.07,0,.08l.63-.49Z" transform="translate(0 -0.06)"/><path class="cls-1" d="M7.79,4.25Z" transform="translate(0 -0.06)"/><path class="cls-1" d="M8.36,3.76c-.11.06-.23.16-.05.06S8.47,3.69,8.36,3.76Z" transform="translate(0 -0.06)"/><path class="cls-1" d="M6.16,5.63l.09-.09.19-.2.28-.29c-.15.09-.68.56-.5.37C5.64,6,5.79,5.92,6.16,5.63Z" transform="translate(0 -0.06)"/><path class="cls-1" d="M5.69,6.24,6,5.94A1.16,1.16,0,0,0,5.69,6.24Z" transform="translate(0 -0.06)"/><path class="cls-1" d="M6.25,5.64c0,.08.08-.07.33-.34l-.31.31L6,5.94C6.07,5.87,6.11,5.9,6.25,5.64Z" transform="translate(0 -0.06)"/><path class="cls-1" d="M3.53,8.73a9.17,9.17,0,0,1-.58.72c0,.06.21-.19.28-.21s.07-.13.15-.26Z" transform="translate(0 -0.06)"/><path class="cls-1" d="M3.22,9.24,3,9.63l-.15.27L2.8,10C3.22,9.35,3.28,9.21,3.22,9.24Z" transform="translate(0 -0.06)"/><path class="cls-1" d="M1.46,12.22,1.53,12l0,.14c0,.08-.06.19-.09.3l-.11.44.11-.38S1.42,12.34,1.46,12.22Z" transform="translate(0 -0.06)"/><path class="cls-1" d="M.52,15.06l.16-.46c0-.38-.23.47-.16.08a6.8,6.8,0,0,0-.17.84c0,.26-.08.51-.09.75a5.94,5.94,0,0,1,.15-.78Z" transform="translate(0 -0.06)"/><path class="cls-1" d="M.18,17.06c0-.25.05-.51.07-.79C.22,16.53.19,16.79.18,17.06Z" transform="translate(0 -0.06)"/><path class="cls-1" d="M1.71,11.93l.22-.28c0-.1.1-.2.15-.31A2,2,0,0,0,1.71,11.93Z" transform="translate(0 -0.06)"/><path class="cls-1" d="M1.94,11.63h0l-.31.68Z" transform="translate(0 -0.06)"/><path class="cls-1" d="M2.08,11.33a.14.14,0,0,0,0-.08Z" transform="translate(0 -0.06)"/><path class="cls-1" d="M.7,15.25c0-.08,0-.32-.13.24,0,.2-.07.41-.11.63l-.11.7L.51,16Z" transform="translate(0 -0.06)"/><path class="cls-1" d="M1.14,13.58l0,.09C1.14,13.62,1.16,13.58,1.14,13.58Z" transform="translate(0 -0.06)"/><path class="cls-1" d="M.15,21.72v-.08l0,0Z" transform="translate(0 -0.06)"/><path class="cls-1" d="M.73,15.16a5.48,5.48,0,0,0,.2-.85c-.07.29-.16.6-.24.93C.7,15.28.71,15.29.73,15.16Z" transform="translate(0 -0.06)"/><path class="cls-1" d="M.06,18.43c0-.21.07-.44.12-.69A2.87,2.87,0,0,0,.06,18.43Z" transform="translate(0 -0.06)"/><path class="cls-1" d="M1.05,13.79l0-.06C1,13.85,1,13.84,1.05,13.79Z" transform="translate(0 -0.06)"/><path class="cls-1" d="M1.05,13.79a4.54,4.54,0,0,0-.11.52c.06-.24.13-.45.18-.65Z" transform="translate(0 -0.06)"/><path class="cls-1" d="M.1,20.69V19.5L0,20.82a2.45,2.45,0,0,0,.14.8l0-.29C.11,21.16.1,20.93.1,20.69Z" transform="translate(0 -0.06)"/><path class="cls-1" d="M.38,18.47c0-.55.06-.74,0-.88a3.37,3.37,0,0,1,0-.56c-.21,1.78,0-.52-.2.76,0-.35.06-.67.11-1-.07.32-.11.63-.17.92v0h0c0-.08,0-.1,0,0v0a.23.23,0,0,1,0,.08c-.08.52,0,.08,0-.08v0h0l0,.28c0,.17,0,.4,0,.62s0,.45,0,.62v.28c0-.38,0-.86.12-1.7C.26,18.11.25,19,.38,18.47Z" transform="translate(0 -0.06)"/><path class="cls-1" d="M.14,22v-.1L0,21.71l0,.13c0,.08,0,.19.07.29l.12.42-.06-.33Z" transform="translate(0 -0.06)"/><path class="cls-1" d="M.42,23.91v-.07l-.09-.06s0,.13.07.25l.08.25,0-.22Z" transform="translate(0 -0.06)"/><path class="cls-1" d="M3.69,11.23l-.18.38Z" transform="translate(0 -0.06)"/><path class="cls-1" d="M5.32,8.66V8.57C5.26,8.7,5.24,8.76,5.32,8.66Z" transform="translate(0 -0.06)"/><path class="cls-1" d="M27,2.47l-.37-.18.73.36Z" transform="translate(0 -0.06)"/><path class="cls-1" d="M3.21,27.66A2.23,2.23,0,0,0,3,27.21s0,.06,0,0l.14.21Z" transform="translate(0 -0.06)"/><path class="cls-1" d="M13,38.56a.6.6,0,0,0-.19,0c.25.12.49.2.7.29s.41.16.6.21c-.32-.11-.59-.25-.81-.34Z" transform="translate(0 -0.06)"/><path class="cls-1" d="M14.08,39c.23.09.48.17.75.25a6.32,6.32,0,0,0,.81.15l-.28-.09c-.2,0-.4-.07-.61-.13Z" transform="translate(0 -0.06)"/><path class="cls-1" d="M3.37,31.09c-.24-.34,0,0,0,0Z" transform="translate(0 -0.06)"/><path class="cls-1" d="M2.64,29.19c.05.07.09.12.12.12A.42.42,0,0,1,2.64,29.19Z" transform="translate(0 -0.06)"/><path class="cls-1" d="M3.07,30.54c.07.14.16.3.26.46Z" transform="translate(0 -0.06)"/><path class="cls-1" d="M3.08,30.63l-.19-.31S2.87,30.33,3.08,30.63Z" transform="translate(0 -0.06)"/><path class="cls-1" d="M3.37,31.09l.33.47L3.33,31C3.37,31.07,3.39,31.1,3.37,31.09Z" transform="translate(0 -0.06)"/><path class="cls-1" d="M26.05,38.17l.08,0C26.51,38,26.34,38,26.05,38.17Z" transform="translate(0 -0.06)"/><path class="cls-1" d="M38.74,19.61v0Z" transform="translate(0 -0.06)"/><path class="cls-1" d="M38.87,19.36l.11-.24-.4-.92a5.17,5.17,0,0,1,.14.75,3.54,3.54,0,0,1,0,.65l0-.07S38.85,19.42,38.87,19.36Z" transform="translate(0 -0.06)"/><path class="cls-1" d="M6.29,32.52l.12.13Z" transform="translate(0 -0.06)"/><path class="cls-1" d="M4.34,10.05l-.08.14Z" transform="translate(0 -0.06)"/><path class="cls-1" d="M27.44,2.64c-.07,0-.08-.07-.09-.1S27.22,2.53,27.44,2.64Z" transform="translate(0 -0.06)"/><path class="cls-1" d="M2.93,27.25l0-.08,0,0Z" transform="translate(0 -0.06)"/><path class="cls-1" d="M25,38.23l.53-.1S25.43,38.13,25,38.23Z" transform="translate(0 -0.06)"/><path class="cls-1" d="M1.38,27.38l0-.09Z" transform="translate(0 -0.06)"/><path class="cls-1" d="M1.38,27.38l0,0c0,.08.07.18.12.28l.19.41a4.62,4.62,0,0,1-.29-.76S1.43,27.51,1.38,27.38Z" transform="translate(0 -0.06)"/><path class="cls-1" d="M1,25.57c.06.22.19.53.31.83A.84.84,0,0,0,1.28,26l-.12-.36L1,25.2l0,.11C1,25.24,1,25.36,1,25.57Z" transform="translate(0 -0.06)"/><path class="cls-1" d="M.84,24.51c-.06-.06,0,.23.14.56L.9,24.79Z" transform="translate(0 -0.06)"/><path class="cls-1" d="M4,31.91c-.14-.1.19.28.42.52s.22.2.22.18a5.16,5.16,0,0,0-.36-.46C4.06,31.9,4,32.07,4,31.91Z" transform="translate(0 -0.06)"/><polygon class="cls-1" points="1.45 25.79 1.43 26.03 1.61 26.33 1.45 25.79"/><path class="cls-1" d="M2.78,29.2c-.15-.28-.28-.55-.37-.7C2.49,28.65,2.65,29,2.78,29.2Z" transform="translate(0 -0.06)"/><path class="cls-1" d="M36.34,29.35c.32-.68.51-1,.24-.78-.3.54-.31.61-.32.68s0,.12-.31.58C35.84,30.11,36.45,29.07,36.34,29.35Z" transform="translate(0 -0.06)"/><path class="cls-1" d="M36.34,29.35l-.17.35C36.27,29.5,36.31,29.41,36.34,29.35Z" transform="translate(0 -0.06)"/><path class="cls-1" d="M10,4.38l.28-.13,0-.06a2.78,2.78,0,0,0-.59.33l.08,0Z" transform="translate(0 -0.06)"/><polygon class="cls-1" points="3.35 12.12 3.43 11.95 3.18 12.22 3.35 12.12"/><path class="cls-1" d="M1.66,20v-.28c0,.1,0,.19,0,.28v.25c0,.15,0,.28,0,.39s0,.3.06.24,0-.38,0-.58S1.66,20.12,1.66,20Z" transform="translate(0 -0.06)"/><path class="cls-1" d="M37.85,10.7l0,.13a2.62,2.62,0,0,1,.22.49C38,11,37.91,10.63,37.85,10.7Z" transform="translate(0 -0.06)"/><path class="cls-1" d="M12.64,1.43c-.12.07-.16.11-.15.12S12.67,1.44,12.64,1.43Z" transform="translate(0 -0.06)"/><path class="cls-1" d="M7.84,34l0,.05S7.88,34,7.84,34Z" transform="translate(0 -0.06)"/><path class="cls-1" d="M40.07,19.64c0-.13,0-.27,0-.4s0-.26,0-.39,0-.24,0-.36,0-.21,0-.3h-.1a3.32,3.32,0,0,0,0-.36l-.05-.37,0-.19,0-.2,0-.21,0-.22h0q-.07-.44-.16-.88t-.21-.88a3.27,3.27,0,0,0,0-.34c0-.11,0-.22-.08-.33s-.08-.24-.13-.36l-.14-.36c0-.12-.1-.23-.15-.35l-.15-.34-.08-.2-.07-.2v0l0-.07,0-.06v-.08h0l0-.08,0-.07-.07-.17-.05-.16v0l0,0,0,0,0-.15,0-.15,0,.13,0,.12c0-.08-.08-.17-.14-.28L37.77,11l0-.07,0-.07v-.05c0-.12-.07-.16-.09-.15s0,.07,0,.14l-.11-.15-.1-.12a.7.7,0,0,0-.17-.41,1,1,0,0,1-.2-.46,1.1,1.1,0,0,1-.18-.21l-.26-.36-.24-.28a1.09,1.09,0,0,0-.2-.18l0,0,0,0a3.22,3.22,0,0,0-.18-.28A2,2,0,0,0,35.74,8l0,0,0,0V7.77l-.08-.06-.17-.13-.07-.05-.07,0-.1-.11-.1-.11c-.06-.11-.09-.19-.07-.21s.08,0,.21.1L35,6.94l-.16-.15-.12-.11-.1-.09-.2-.18-.34-.26h.08c-.1-.1-.24-.2-.37-.3a1,1,0,0,1-.28-.28,1.81,1.81,0,0,0-.2-.24L33.05,5c-.12-.12-.26-.24-.41-.37l-.48-.4c-.35-.27-.72-.54-1.1-.81L30,2.67c0,.09,0,.11,0,.08a2,2,0,0,1-.22-.16,3.15,3.15,0,0,0-.28-.19c-.09-.05-.16-.07-.2,0s-.09-.1-.11-.14,0,0,.12,0L28.79,2l-.39-.2A2.41,2.41,0,0,0,28,1.61a1.88,1.88,0,0,0-.39-.09s0,0,.06,0,.1,0,.06,0l-.16,0a.44.44,0,0,1-.16-.08s0,0,.06,0l.2,0-.26-.1-.21-.06-.17,0H27a.36.36,0,0,0-.16.06.45.45,0,0,0-.1.09l-.25-.13-.21-.08-.2,0h-.22c-.06,0-.14-.1-.15-.13s.06,0,.31,0L25.82.95,25.6.87l-.13,0-.14,0-.15,0L25,.7,24.5.58c-.14,0-.24,0-.26,0A.83.83,0,0,0,24,.53l-.23,0L23.4.43l-.27,0-.27,0-.38,0,.08,0,.08,0a.54.54,0,0,1-.2,0l-.22,0s0,0,0,0,0,0,0,0H22c-.06,0-.08,0-.09,0l-.14,0h-.14L21.28.21l-.23,0h-.48l-.22,0L20,.13l0,0,0,0h0c0,.05-.1.07-.21.07a3.31,3.31,0,0,1-.41,0l-.52,0a2.52,2.52,0,0,0-.53,0l.12,0,.12,0a1,1,0,0,1-.32,0L17.93.24,17.55.16a1.18,1.18,0,0,0-.33,0s0,0,0,0l.19,0c-.49,0-.51.05-.51.1s0,.11-.3.19c-.07,0,0-.07,0-.11s-.06-.06-.3,0A1.31,1.31,0,0,0,16,.3l-.52.18c-.19.08-.39.15-.59.21a3.85,3.85,0,0,1-.55.13.38.38,0,0,1,.17,0s0,.06-.17.13-.58.14-.91.23a2,2,0,0,0-.82.36h-.1l-.32.17-.39.21-.35.22a1.36,1.36,0,0,0-.22.17.39.39,0,0,0-.22,0,1.9,1.9,0,0,0-.3.13l-.34.2L10,2.9l-.33.24-.28.19a.92.92,0,0,1-.21.11c-.06,0-.1,0-.12,0l-.15.11-.33.24L8.25,4l-.15.11v0l-.17.13-.15.12-.06,0-.07,0-.3.24L7,5l.32-.23.19-.12h0l-.07.08-.06.07-.06.06-.08.07.05,0,.05,0-.07.09L7.18,5c-.07.05-.09.05-.09,0s0,0,0-.06l-.52.43a3.22,3.22,0,0,0-.34.33L6.07,6l-.2.26-.1.11-.09.1-.06.07,0,.06H5.52c-.07.11-.36.39-.71.76a6.8,6.8,0,0,0-1,1.34.09.09,0,0,1,0,0,.37.37,0,0,1,0-.09c-.14.26-.32.53-.5.8s-.37.54-.54.8c0,0,0,0,0,0l0-.11-.05.11-.12.25c-.09.14-.17.28-.23.41a2.56,2.56,0,0,0-.15.37l0,0,0,0v.07a.83.83,0,0,0,0,.14.46.46,0,0,0,0,.12l0,.12c0,.07-.06.17-.08.27L2,12.21l0,.12c.21-.48.23-.43.23-.3s0,.32.08.13a2.45,2.45,0,0,1-.13.3,2.47,2.47,0,0,1-.15.25c0,.06-.07.1-.09.09s0-.06,0-.18l0,0,0,0c-.06-.12-.19.17-.31.5s-.25.67-.3.63l0,.14,0,.14a.11.11,0,0,0,0-.06.11.11,0,0,1,0-.05l0,.06,0,.16c0,.07,0,.14-.07.23l-.07.26L1,14.85,1,15.08l0,.09v.1l0-.08,0-.06,0-.07q-.1.4-.19.79t-.16.79c-.1.49-.17,1-.21,1.48s-.08,1-.09,1.47l0,0,0-.08.05-.08,0,0v0s0,0,0,.08v.57c0,.09,0,.15-.07.13s0-.13,0-.37a1.12,1.12,0,0,0,0,.5.85.85,0,0,0,.11.32v.15s0-.06-.06-.07,0,0-.06,0l0-.19s0,0,0,0v.24a1.32,1.32,0,0,0-.12.34,4.5,4.5,0,0,0-.08.51l0,0a.42.42,0,0,1,0,.11l.05.27.1.52c0-.16,0-.67,0-1s0-.61.08-.23c0,.15,0,.28,0,.39l0,.28c0,.08,0,.14,0,.2s0,.1,0,.15,0,.15,0,.23,0,.18,0,.33c0-.06,0-.09,0-.08s0,0,0,.1l0,.08,0,.09v.08l0,.12,0,.13c0,.14.08.28.12.4a1.32,1.32,0,0,0,.11.26l.08.35.08.31h0v.13l0,.07,0,.07c0,.18.11.37.16.54l.15.48.13.37a1.66,1.66,0,0,1,.07.22l.08.14.07.14V27l.05.12.07.17,0,.06,0,.06,0,.08,0,.08,0,.07,0,.07.11.27.12.3.07.16.07.17.08.17.08.17.1.21.11.21,0-.07-.05-.08.22.4.2.36,0,0,0,0c.13.22.26.44.4.66s.29.43.44.64L3.77,31c-.08-.09-.09-.08.06.15-.28-.36-.58-.74-.87-1.19a9.75,9.75,0,0,1-.83-1.55v-.25a2.74,2.74,0,0,0,.19.48,5.2,5.2,0,0,0,.31.59A1.84,1.84,0,0,1,2.51,29l-.13-.28-.14-.32L2.12,28,2,27.69l-.13-.33c0-.1-.08-.2-.13-.29a1.57,1.57,0,0,0-.13-.22l0,.14.08.3,0,.16,0,.14,0,.1v0c-.21-.41-.44-.88-.65-1.38a9.13,9.13,0,0,1-.51-1.62,1.34,1.34,0,0,0,.05.43,3.26,3.26,0,0,1,.11.65c0-.18,0-.1.12.11s.19.55.3.87l.18.45c.05.14.1.25.14.33s.07.12.07.1a.7.7,0,0,0,0-.22A5.8,5.8,0,0,0,2,28.58c.16.37.35.75.56,1.27,0,0,0-.12,0-.1a4.8,4.8,0,0,1,.34.57l.07.07.08.09,0,0,0,0v0l0,0,0,0L2.9,30.2A.87.87,0,0,1,2.83,30L3,30.2l.18.24.2.29.22.31.23.3.21.29.2.24.16.18c.17.23.12.19.05.13s-.16-.15-.08,0l.08.09.19.19.19.19.09.09a2.5,2.5,0,0,0,.32.55c.11.17.11.21-.36-.28l.12.15.28.31.29.31.13.14c.23.27.53.58.83.87a7.44,7.44,0,0,0,.86.72,5.26,5.26,0,0,0,.72.52c.2.12.28.16.06,0l.07,0,.18.12.12.08.13.09.15.09.15.09.3.18.26.16.19.1.07,0h0a12.64,12.64,0,0,0,1.27.68c.44.21.9.4,1.37.58s.95.35,1.44.52l1.51.49.24,0,.24,0,.25,0,.27,0,.29,0,.31.05.34,0,.38.05.1.05.1.05.73.06c.27,0,.57,0,.85.05h.76l.28,0,.19,0a2.17,2.17,0,0,0,.43,0h.59l.34,0,.36,0,.19,0,.19,0,.19,0,.2,0c.26,0,.53-.1.79-.16l.77-.19.7-.2L26,39V38.9l0,0,0,0,.09,0,.09,0c.28-.1.56-.2.85-.32s.57-.25.87-.4l-.08.06-.17.09-.48.24c-.12.06-.17.09,0,0l.12,0,.26-.1.14-.06.12,0,.08,0h0l-.06,0-.06,0h0l.65-.38c.21-.12.48-.27,1-.54l.32-.15.13,0H30l.12-.05h0l.06,0,.12-.07.19-.12.2-.13.46-.29h0l0,0,0,0,.49-.34L32,35.9l-.17.08-.17.08.08-.08.07-.07-.14.12-.16.11-.06,0-.06,0,.31-.24.28-.22-.08.08-.08.09.1-.1.09-.1.23-.19s0-.06,0,0l.21-.15.2-.16.27-.2.29-.23c.13-.1.26-.22.4-.34L34,34l.41-.41.4-.42a20,20,0,0,0,1.35-1.68c.36-.5.62-.88.72-1l.16-.31.16-.31s0,0,.06-.06a1.93,1.93,0,0,0,.08-.21l.07-.13.07-.13.06-.09.06-.09a2.92,2.92,0,0,0,.16-.25c0-.06,0-.09,0-.08h0l0-.06,0-.06a4.64,4.64,0,0,0,.3-.51,3.36,3.36,0,0,0,.22-.51,2.08,2.08,0,0,0,.14-.42c0-.11,0-.16,0,0l0-.14.11-.31,0-.08,0-.07c0-.09.09-.2.14-.32l.16-.42.16-.51.17-.52c0-.17.1-.33.15-.48a3.87,3.87,0,0,1,.15-.39c0,.1-.06.12-.06.09a1.89,1.89,0,0,1,0-.24v0a1.92,1.92,0,0,0,0-.2,1.81,1.81,0,0,0,0-.2l0-.28c0-.09,0-.19,0-.29l0-.29,0-.27,0,0,0,0c0-.1,0-.23,0-.36l.06-.41c0-.14,0-.27,0-.37a.56.56,0,0,0,0-.23.84.84,0,0,0,.07-.21,2.6,2.6,0,0,0,0-.29c0-.05,0-.11,0-.17s0-.12,0-.18,0-.13,0-.19S40.07,19.71,40.07,19.64ZM8.4,5.34l-.4.4a3.15,3.15,0,0,1-.38.33,1.07,1.07,0,0,1,.3-.37C8,5.59,8.2,5.48,8.4,5.34ZM7.77,34.12l0-.05,0-.05.1.09.07.08,0,0Zm3,.53-.3-.2-.32-.22-.11-.08L10,34.07,9.9,34,9.84,34l-.11-.09-.11-.09-.06-.05-.06-.05-.11-.12a.28.28,0,0,1-.05-.1c-.12-.1-.15-.11-.16-.1s0,.05,0,.07h0l-.09-.08L9,33.26v-.06h0l-.16-.13L8.6,33a.47.47,0,0,1-.05-.11.09.09,0,0,1,0-.06l.11.09.12.09a2.32,2.32,0,0,0-.24-.25l-.29-.25L8,32.25l-.14-.14,0,.05.1.12.1.12,0,.05c-.19-.16-.38-.34-.57-.54s-.37-.39-.56-.6l.13.11.18.17,0,0,0,0-.19-.2-.22-.23-.28-.32-.21-.24,0-.05,0-.05c0-.07-.14-.26-.22-.41s-.14-.26-.06-.18c-.13-.2-.28-.42-.43-.66s-.33-.49-.5-.75L4.82,28l-.24-.42-.21-.44c-.07-.15-.13-.3-.18-.45l-.08-.14L4,26.27a16.85,16.85,0,0,1-.5-1.68C3.34,24,3.21,23.41,3,22.71V21.9c0-.27-.05-.34-.07-.32a1.35,1.35,0,0,0,0,.23c0,.09,0,.16-.05.09a4,4,0,0,1-.11-.74c0-.66,0-.78,0-.8s.09.07.1-.16,0-.35,0-.57,0-.46,0-.72,0-.53.07-.82a5.08,5.08,0,0,1,.17-.87c0,.1,0,.19,0,.28l0,.26c0,.09,0,.17,0,.26s0,.18,0,.27l0-.14L3,17.85l.08-.31,0-.14,0,.2,0,.19v.86c0,.11,0,.17,0,.14a2.37,2.37,0,0,0,.09-.34s0-.09-.05-.2a3.81,3.81,0,0,1,0-.42c0-.17,0-.36.08-.57s.07-.42.11-.64l.08-.32L3.47,16l.07-.3c0-.09,0-.18.07-.27A3.82,3.82,0,0,0,3.69,15c0-.11,0-.18,0-.2l0-.09.08-.19.09-.19,0-.09-.06.18-.06.18a3,3,0,0,0,.34-1,4.18,4.18,0,0,1,.45-1.26c.13-.23.25-.42.32-.52s.08-.09,0,.08L5,11.74l.17-.37.2-.36.09-.16a.65.65,0,0,1,.13-.18s0,.05-.06.14l0-.05,0-.06.15-.25.18-.28.35-.51.16-.23h0L6.74,9l.32-.49.12-.11-.05.07L7,8.57s0,.06,0,0l0,0,.07-.09.1-.13.12-.14.22-.27.1-.12c.08-.06.11-.07.1,0A1,1,0,0,1,7.62,8l-.13.16-.15.19-.08.1-.09.1-.08.1L7,8.73l.25-.19.19-.16.15-.17L7.73,8l.18-.23a3.22,3.22,0,0,1,.25-.28l.17-.16.2-.18.11-.1L8.76,7l.14-.1L9,6.76l0,0-.08.07L8.82,7l-.12.12-.22.23-.1.11a3.93,3.93,0,0,0,.4-.28l.43-.33.24-.19.26-.2.29-.2L10.3,6l-.37.2-.51.31a1.18,1.18,0,0,1-.32.16s0-.07.21-.26l.2-.15.23-.18L9.93,6l.21-.18,0,0,.06,0a.06.06,0,0,1,0,0v0l0,0,0,0s.05,0,.11,0l.24-.14L11,5.25,11.42,5V5.1A6.17,6.17,0,0,0,12,4.7a3.89,3.89,0,0,1,.37-.28,3.68,3.68,0,0,1,.81-.29,1.8,1.8,0,0,1,.38,0A1.6,1.6,0,0,0,14,3.94a.79.79,0,0,0-.22,0c-.1,0-.2,0-.18,0a2.45,2.45,0,0,1,.55-.23c.55-.14,1-.26,1.52-.37s1-.2,1.72-.3c.4,0,.37,0,.27,0s-.26,0-.12.06l.11,0,.24,0,.24,0,.11,0c.09,0,.12,0,.12,0s0,0,0,0c.3,0,.31-.06.37-.09a1.65,1.65,0,0,1,.63-.07l.16,0h.27l.36,0,.44,0a9.41,9.41,0,0,0,1,0,8,8,0,0,0,1-.08c.14,0,.11,0,.05.05s-.14,0-.1.07c.4,0,.68,0,.89,0l.52,0,.22,0,.25,0,.32.05.43.08.06,0,.15.06h0l.13.05.13.06.36.16.16.07c-.18-.09-.25-.14-.26-.17s.07,0,.2,0l.41.15.49.21h-.15s0,0,0,0l.19.06.26.11-.11,0s0,0,0,0l.14.06.28.09.12.13.12.13h.1l.26.15.56.35.54.38.25.17c.16.07.31.16.45.24l.44.26.45.27a4.64,4.64,0,0,1,.45.31l.1.08.1.08.38.34.4.38,0-.1,0-.1,0,0,0,0,.21.21.15.16.12.15.12.15c.08.06.12.08.12.06S33,8,32.93,8h0l.14.15.14.16c-.13-.09-.15-.06-.15,0s0,.14,0,.17a1.11,1.11,0,0,0-.14-.21L32.73,8,32.5,7.8l-.26-.25-.14-.13L32,7.29l-.15-.12L31.65,7l-.32-.27L31,6.49c.22.2.29.29.3.32s-.06,0-.12,0l.25.2.54.43.51.48.23.22s0,0,0,.08a1.26,1.26,0,0,0,.13.17l.19.25.22.31c0-.11,0-.09.13,0a5.91,5.91,0,0,1,.43.46l.25.34.26.36.25.34.2.29s0,0,0,0a.52.52,0,0,1-.12-.12l-.22-.29c-.1-.13-.21-.29-.35-.5a3.77,3.77,0,0,0,.38.6l.36.44L35,11l.17.23c.06.08.12.17.17.27a2,2,0,0,1,.15.35l-.13-.26a.57.57,0,0,0-.11-.15,7.51,7.51,0,0,1,.55,1c.16.35.25.6.15.47v0l0-.08,0-.08,0,0a2.82,2.82,0,0,1,.13.3l.13.33.14.36.15.37.13.39.13.4.13.4a3.93,3.93,0,0,1,.11.39l.1.38.09.36,0,.17,0,.16,0,.15,0,.14c0,.14.06.26.09.36a2.24,2.24,0,0,0,.07.24.16.16,0,0,0,0,0l0,0h0s-.06,0-.12-.1a.94.94,0,0,1-.15-.18l0,.12.11.32,0,.1,0,.11,0,.12,0,.12.07.26.07.27,0,.1,0,.1v0h0v.05q0,.31,0,.61t0,.6c-.07.06-.14.11-.2,0a1.39,1.39,0,0,1-.14-.7c0,.1,0,.2,0,.31s0,.23,0,.37,0,.14,0,.21,0,.15,0,.24v.55a1.11,1.11,0,0,1,.14-.38c.06-.08.1-.09.09.09l-.12.54c0,.13,0,.22-.06.32s0,.1,0,.16a1.77,1.77,0,0,1,0,.2l-.07.27-.1.38c0-.19.1-.17.14,0a2,2,0,0,1,0,.73c0-.05-.06,0-.11-.06s-.1,0-.09-.16,0,0,0,.07,0,.1,0,.18L37,24l0,.29c0,.1,0,.2,0,.29l0,.25V25c0-.14,0-.14-.09-.08a1.5,1.5,0,0,0-.22.35s0,0,0,.15l-.17.49-.05.15-.05.15-.06.15-.06.14-.1.25L36,26.9l.15-.3.15-.3c-.09.2-.15.38-.21.54l-.16.43c0,.13-.08.25-.11.36s-.06.22-.1.32l-.1.32c0,.11-.08.23-.13.36s-.12.26-.2.42-.18.32-.3.51a.48.48,0,0,0,0-.17c0-.05,0-.1,0-.11s-.08,0-.15.07a2.2,2.2,0,0,0-.3.36c0,.09-.07.22-.13.38s-.14.36-.24.58l-.11.13-.1.12-.11.14-.11.13-.11.13-.11.12-.2.24-.19.22,0,0,0,0,.07-.11.07-.11.16-.24.15-.24.27-.46c.09-.14.17-.28.23-.41l-.22.24-.1.1-.14.15-.32.39c-.07.05-.08.05-.07,0l.13-.2.21-.28.18-.24-.06.08-.16.2-.23.28-.28.31-.28.31-.26.26-.18.18-.07.07s0,0,0,.06l-.11.15-.18.21-.22.24-.42.43c-.11.12-.18.19-.14.2l.08-.07.21-.19.29-.28.32-.33c.11-.11.22-.23.31-.34l.26-.3.18-.21.07-.08s0,0,0,.06a.78.78,0,0,1-.07.17l-.16.25-.23.32-.31.36-.37.39-.07,0-.07,0-.06.08,0,.06-.33.29-.35.28c-.18.11-.15,0-.09-.1s.17-.27.14-.27l-.25.23-.42.34-.43.31a1.43,1.43,0,0,1-.25.16l0,0,.06,0,.09-.07.1-.08.18-.15.08-.07-.27.18-.25.18-.24.17L29,35l-.25.17-.27.17-.31.16-.36.15-.31.13-.36.12-.3.1c-.08,0-.13.06-.14.08a1.18,1.18,0,0,1,.29,0,.73.73,0,0,1,.23,0,5.08,5.08,0,0,1-.52.23c-.16.07-.28.13-.3.21l.23-.1.51-.22.08,0,.08,0h0l-.35.19-.38.19-.19.09-.2.09v0l-.12,0-.12,0h0l-.09,0-.09,0-.47.15-.53.13.34-.15.48-.19-.3.08L25,37l.13-.09.09-.07.1,0,.1,0,.44-.15.44-.16.41-.18.36-.18a4.09,4.09,0,0,0-.45.17l-.51.22-.36.12c-.07,0-.07,0,0-.08a1.57,1.57,0,0,1-.25.15l-.29.12,0,0h-.09l0,0-.09.05-.2.05-.2.05H24.5s0,0-.11,0l-.41.1h-.14l-.41.09-.42.12,0-.05,0-.05-.39.09-.51.09.3-.1.3-.1a5.62,5.62,0,0,1-1.39.15c-.46,0-.91,0-1.37,0h.89c.14,0,.16,0,.15,0s-.06,0-.06.06.07,0,.27,0a7.72,7.72,0,0,1-1.26,0,4.78,4.78,0,0,1-.65-.1,6.82,6.82,0,0,0-.69-.15l-1.39-.21.16,0,.19,0,.2,0,.18,0,.21.06s0,0-.17,0l-.4-.07-.4-.09-.37-.09L16.6,37l-.44-.09-.22,0,0,0,0,0c-.17-.06-.34-.13-.53-.19a2.11,2.11,0,0,0-.58-.1c-.08,0,0,0,0,0s.11,0,.07,0a1,1,0,0,1-.36,0,3.91,3.91,0,0,1-.5-.19H14l-.41-.15-.36-.15-.33-.15-.31-.16-.31-.17L12,35.24,11.59,35l-.41-.26,0,.06,0,.06L11,34.7l-.15-.13c-.18,0,0,.08.17.19s.37.23.21.22h0a.94.94,0,0,0-.15-.15ZM33.73,6.72l0,0,0,0h0l.06.07L34,7h0l-.1-.11Zm-3.94-3-.16-.09-.19-.12-.21-.14L29,3.23l.39.21C29.51,3.53,29.65,3.62,29.79,3.73ZM25,38.38h.06l.05,0,.05,0-.07,0-.06,0h0ZM39.19,14.62l0,.1,0,.12,0-.11ZM26.38,1.31l.09,0h0l0,0a0,0,0,0,1,0,0l-.17-.06-.17-.06.1,0Zm-7-.4h.41l.43,0,.5,0c.21,0,.19,0,.14.07s-.14,0-.07.05l.18,0,.18,0h.13l.09,0,.06,0h-.5a2.08,2.08,0,0,1-.82.07c-.32,0-.72-.05-1.23,0h-.24s0,0,0,0l.28,0h.43ZM18.31,1h0Zm-3.44.46h0Zm-9.16,5,0,0,.07-.09-.07.11-.08.13H5.6l.05-.06Zm.66,28h0l.29.29Zm1.85,1.3-.35-.21-.37-.26A4.94,4.94,0,0,1,7.05,35l-.55-.52a1.45,1.45,0,0,1-.23-.34c0-.05,0-.06.06-.05l.31.32.31.3c.28.28.56.52.83.74a8.38,8.38,0,0,0,.75.55l-.16-.09Zm2.95,1.76c-.33-.16-.54-.27-.65-.34s-.15-.1-.14-.12,0,0,.06,0,0,0,0,0L10,36.82l-.37-.21-.31-.19L9,36.26l-.06,0-.06,0,.19.09.16.05.22.13.49.28.27.14.24.12.17.08.06,0a5.53,5.53,0,0,1-.72-.46c-.06-.06,0,0,.13,0l.06,0,.07,0,.33.18.34.18.29.14.29.14c.09.06.13.1.1.1a1.71,1.71,0,0,1-.34-.14l-.07,0-.07,0s-.06,0,0,0a.84.84,0,0,0,.16.12l-.16-.06s0,0,0,0l.14.07.32.14.26.14.29.14.24.11.23.11.13.06.12.05c-.24-.07-.51-.15-.8-.25S11.48,37.69,11.16,37.56ZM30.26,37l-.12.06-.12.06h0l.36-.22S30.33,36.93,30.26,37Zm2-1.54-.05,0-.05,0,0,0-.05,0h0l.1-.06.11-.07h0Z" transform="translate(0 -0.06)"/><path class="cls-1" d="M20.44,33.45a13,13,0,0,0,3.63-.51,10.48,10.48,0,0,0,3.12-1.47,7.31,7.31,0,0,0,2.19-2.41,8,8,0,0,0,.81-3.27,6.85,6.85,0,0,0-.86-3.52,6.29,6.29,0,0,0-2.18-2.33,12.34,12.34,0,0,0-2.94-1.49c-1-.37-2.09-.71-3.14-1L19.48,17A10,10,0,0,1,18,16.39a4.38,4.38,0,0,1-1.07-.71A1.24,1.24,0,0,1,17.1,14l.11-.09.2-.16a5,5,0,0,1,4.28.43,1.68,1.68,0,0,1,.65.77.87.87,0,0,0-.24.6,1,1,0,0,0,2,0,.94.94,0,0,0-.76-.89,2.66,2.66,0,0,0-1.05-1.27A5.83,5.83,0,0,0,16.67,13l-.16.13-.13.11a2.15,2.15,0,0,0-.35,3l0,0,0,0a5.39,5.39,0,0,0,1.39.93,11.06,11.06,0,0,0,1.68.64l1.59.45c1,.31,2.06.65,3.08,1a11.23,11.23,0,0,1,2.68,1.36,6.66,6.66,0,0,1,1.9,2,5.85,5.85,0,0,1,.72,3.05,5.71,5.71,0,0,1-.69,2.83,6.32,6.32,0,0,1-1.89,2.08A9.38,9.38,0,0,1,23.75,32a11.86,11.86,0,0,1-3.31.46,10,10,0,0,1-3.35-.58l-.07,0a13.21,13.21,0,0,1-6.73-4.72L12.4,25.1A33.82,33.82,0,0,0,16.85,29h0a8.72,8.72,0,0,0,8.32.16,1.07,1.07,0,0,0,.56.16.93.93,0,1,0,0-1.84,1,1,0,0,0-1,.79,7.39,7.39,0,0,1-7.27-.05,35.41,35.41,0,0,1-4.66-4.21l-.39-.42L8.93,27.08l.24.32a14.21,14.21,0,0,0,7.57,5.42A11.12,11.12,0,0,0,20.44,33.45Z" transform="translate(0 -0.06)"/><path class="cls-1" d="M13.54,19.26a11.71,11.71,0,0,0,2.84,1.51c1,.37,2,.72,3,1l1.54.46a9.31,9.31,0,0,1,1.46.58,4.22,4.22,0,0,1,1,.72,1.3,1.3,0,0,1-.2,1.71l-.11.09-.19.17a4.58,4.58,0,0,1-4.13-.43,1.71,1.71,0,0,1-.45-.45.91.91,0,0,0,.26-.63,1,1,0,0,0-2,0,.94.94,0,0,0,.67.89,2.69,2.69,0,0,0,.89,1,5.54,5.54,0,0,0,3.11.91,4,4,0,0,0,2.33-.57l.15-.13L24,26a2.26,2.26,0,0,0,.34-3l0,0,0,0A5.2,5.2,0,0,0,22.9,22a10.37,10.37,0,0,0-1.63-.64l-1.54-.46c-1-.31-2-.66-3-1a10.67,10.67,0,0,1-2.59-1.38,6.64,6.64,0,0,1-1.83-2.06,6.17,6.17,0,0,1-.7-3.09,6,6,0,0,1,.67-2.87,6.31,6.31,0,0,1,1.83-2.11A8.87,8.87,0,0,1,16.83,7,11,11,0,0,1,20,6.55a9.22,9.22,0,0,1,3.24.58l.07,0a12.61,12.61,0,0,1,6.5,4.78l-2,2.1a33.26,33.26,0,0,0-4.29-4l0,0a8.12,8.12,0,0,0-7.77-.31,1,1,0,0,0-.59-.19.94.94,0,1,0,0,1.87,1,1,0,0,0,1-.74,6.87,6.87,0,0,1,6.81.18,34.91,34.91,0,0,1,4.5,4.27l.37.43L31.16,12l-.23-.33a13.69,13.69,0,0,0-7.31-5.5A10.29,10.29,0,0,0,20,5.56a12,12,0,0,0-3.51.52,9.92,9.92,0,0,0-3,1.49A7.3,7.3,0,0,0,11.39,10a7,7,0,0,0-.78,3.32,7.09,7.09,0,0,0,.83,3.57A7.63,7.63,0,0,0,13.54,19.26Z" transform="translate(0 -0.06)"/></svg>